<svg id="Ticket" xmlns="http://www.w3.org/2000/svg" width="20" height="16" viewBox="0 0 20 16">
  <path id="Ticket-2" data-name="Ticket" d="M16.219,16H13.066a.583.583,0,0,1-.59-.573V13.4a.708.708,0,0,0-.725-.7.716.716,0,0,0-.725.7v2.03a.582.582,0,0,1-.589.573H3.782A3.733,3.733,0,0,1,0,12.326V9.916a.693.693,0,0,1,.739-.661A1.283,1.283,0,0,0,2.021,8a1.212,1.212,0,0,0-1.3-1.174.734.734,0,0,1-.513-.207A.69.69,0,0,1,0,6.116V3.683A3.742,3.742,0,0,1,3.791,0h6.646a.582.582,0,0,1,.589.573v2.4a.725.725,0,0,0,.725.7.716.716,0,0,0,.725-.7V.573A.583.583,0,0,1,13.066,0h3.153A3.733,3.733,0,0,1,20,3.674V6.041a.694.694,0,0,1-.212.5.734.734,0,0,1-.513.206,1.255,1.255,0,1,0-.014,2.509A.693.693,0,0,1,20,9.916v2.41A3.733,3.733,0,0,1,16.219,16ZM11.75,5.7a.724.724,0,0,0-.725.7v3.758a.725.725,0,0,0,.725.7.716.716,0,0,0,.725-.7V6.407A.716.716,0,0,0,11.75,5.7Z" fill="#200e32"/>
</svg>