<svg id="Layer_1" data-name="Layer 1" xmlns="http://www.w3.org/2000/svg" viewBox="0 0 25.77 33.31"><defs><style>.cls-1{fill:#9dcf7f;}.cls-2{fill:#040605;}</style></defs><circle class="cls-1" cx="12.89" cy="12.89" r="12.89"/><path class="cls-2" d="M118.94,105.58a.75.75,0,0,0-1.06.09.74.74,0,0,0,.09,1l6.27,5.31v3.09a9.08,9.08,0,0,1-6.3-3c-3.63-4.23-1.94-10.3.11-14.66a39.65,39.65,0,0,1,4.46-6.84.75.75,0,0,0-.13-1,.74.74,0,0,0-1,.13,40.42,40.42,0,0,0-4.64,7.12c-3.21,6.82-3.17,12.45.11,16.28a10.74,10.74,0,0,0,8.11,3.56h0a.85.85,0,0,0,.82-.81v-4.16a.77.77,0,0,0-.26-.58Z" transform="translate(-112.11 -83.35)"/><path class="cls-2" d="M130.41,100.86l-5.4,4.36-5.45-4.48a.75.75,0,1,0-1,1.15c.09.07,5.88,4.85,6,4.91a.75.75,0,0,0,.9,0l5.88-4.76a.75.75,0,0,0-.94-1.16Z" transform="translate(-112.11 -83.35)"/><path class="cls-2" d="M121.11,96.66a.75.75,0,0,0-1.06.08.76.76,0,0,0,.08,1.06l1.79,1.55a.75.75,0,0,0,1-1.13Z" transform="translate(-112.11 -83.35)"/><path class="cls-2" d="M127.08,110.18a.75.75,0,0,0,1.06.1l4.3-3.51a.74.74,0,0,0,.1-1,.75.75,0,0,0-1-.11l-4.3,3.51A.76.76,0,0,0,127.08,110.18Z" transform="translate(-112.11 -83.35)"/><path class="cls-2" d="M133.31,96.81c-2-4.3-6.69-9.54-7.73-10.81a.76.76,0,0,0-1.33.56c0,.11,0-.72,0,14.22a.79.79,0,0,0,1.28.59L130,97.86a.75.75,0,0,0-.93-1.18l-3.3,2.6V88.53A48.33,48.33,0,0,1,132,97.45c2.05,4.36,3.74,10.43.11,14.66a7.85,7.85,0,0,1-4.24,2.75.75.75,0,1,0,.36,1.45,9.33,9.33,0,0,0,5-3.22C136.48,109.26,136.52,103.63,133.31,96.81Z" transform="translate(-112.11 -83.35)"/></svg>