<svg id="Ticket_Star" data-name="Ticket Star" xmlns="http://www.w3.org/2000/svg" width="20" height="18" viewBox="0 0 20 18">
  <path id="Ticket_Star-2" data-name="Ticket Star" d="M15.858,18H4.143A4.128,4.128,0,0,1,0,13.9V11.219a.747.747,0,0,1,.75-.743A1.484,1.484,0,0,0,2.24,9,1.411,1.411,0,0,0,.75,7.612.748.748,0,0,1,0,6.869L0,4.1A4.128,4.128,0,0,1,4.144,0H15.856A4.129,4.129,0,0,1,20,4.1V6.782a.745.745,0,0,1-.75.743,1.475,1.475,0,1,0,0,2.95.747.747,0,0,1,.75.743V13.9A4.128,4.128,0,0,1,15.858,18ZM10,11.27h0l1.455.757a.751.751,0,0,0,.349.088.741.741,0,0,0,.726-.859l-.279-1.608L13.431,8.51a.72.72,0,0,0,.187-.753.729.729,0,0,0-.6-.5l-1.629-.236-.729-1.463a.743.743,0,0,0-1.327,0L8.608,7.025,6.982,7.26a.736.736,0,0,0-.6.5.723.723,0,0,0,.187.753L7.748,9.648,7.47,11.256a.727.727,0,0,0,.3.718.741.741,0,0,0,.777.055L10,11.27Z" fill="#200e32"/>
</svg>