<svg xmlns="http://www.w3.org/2000/svg" width="37.023" height="10" viewBox="0 0 37.023 10">
  <g id="Group_4184" data-name="Group 4184" transform="translate(-7745 -943)">
    <g id="Group_4182" data-name="Group 4182" transform="translate(7745 943)">
      <path id="Path_58885" data-name="Path 58885" d="M23.064,9.954H21.082L23.838,0H25.82Z" transform="translate(5.27 0)" fill="#66686c"/>
      <path id="Path_58886" data-name="Path 58886" d="M24.7.309a.734.734,0,0,0-.637-.285h-10.9l-.54,1.95h9.914l-.577,2.083H14.034v0H12.053L10.408,9.991h1.983L13.495,6H22.41a1.267,1.267,0,0,0,.787-.285,1.323,1.323,0,0,0,.485-.7l1.1-3.987A.809.809,0,0,0,24.7.309Z" transform="translate(2.602 0.006)" fill="#66686c"/>
      <path id="Path_58887" data-name="Path 58887" d="M11.855,9.327a.911.911,0,0,1-.878.667H.752A.714.714,0,0,1,.13,9.709.792.792,0,0,1,.042,9L2.537.023H4.521L2.293,8.045h7.935L12.456.023H14.44Z" transform="translate(0 0.006)" fill="#66686c"/>
    </g>
    <g id="Group_4183" data-name="Group 4183" transform="translate(7774.985 943.018)">
      <path id="Path_58888" data-name="Path 58888" d="M28.164.015,30.673,5,25.4,9.994Z" transform="translate(-23.636 -0.015)" fill="#27803b"/>
      <path id="Path_58889" data-name="Path 58889" d="M26.758.015,29.265,5,23.988,9.994Z" transform="translate(-23.988 -0.015)" fill="#e9661c"/>
    </g>
  </g>
</svg>
